<svg fill="none" height="540" viewBox="0 0 960 540" width="960" xmlns="http://www.w3.org/2000/svg"><path d="m0 0h960v540h-960z" fill="#f0f0f0"/><path clip-rule="evenodd" d="m541.004 245.286c-.013-4.658-1.876-9.121-5.179-12.408-3.302-3.286-7.775-5.127-12.435-5.119 0 0-21.664-1.759-43.926-1.759-21.929 0-42.896 1.759-42.896 1.759-4.646.013-9.097 1.864-12.382 5.148s-5.136 7.735-5.149 12.379c0 0-.88 12.631-.88 26.307 0 12.498.88 22.805.88 22.805.013 4.645 1.864 9.095 5.149 12.379s7.736 5.135 12.382 5.148c0 0 22.361 1.759 45.088 1.759 21.581 0 41.734-1.759 41.734-1.759 4.659.005 9.129-1.838 12.431-5.123 3.301-3.286 5.165-7.746 5.183-12.404 0 0 .88-11.054.88-24.033 0-13.278-.88-25.079-.88-25.079z" fill="#f12b24" fill-rule="evenodd"/><g fill="#fff"><path d="m488.406 252.028c0 3.283-2.661 5.944-5.944 5.944s-5.944-2.661-5.944-5.944 2.661-5.945 5.944-5.945 5.944 2.662 5.944 5.945"/><path d="m500.295 259.668c0 2.814-2.281 5.095-5.095 5.095s-5.095-2.281-5.095-5.095 2.281-5.095 5.095-5.095 5.095 2.281 5.095 5.095z"/><path d="m501.994 274.105c0 2.344-1.901 4.245-4.246 4.245s-4.246-1.901-4.246-4.245c0-2.346 1.901-4.247 4.246-4.247s4.246 1.901 4.246 4.247z"/><path d="m493.501 286.843c0 1.876-1.52 3.397-3.397 3.397-1.876 0-3.396-1.521-3.396-3.397s1.52-3.397 3.396-3.397c1.877 0 3.397 1.521 3.397 3.397z"/><path d="m478.216 290.24c0 1.875-1.521 3.396-3.397 3.396s-3.397-1.521-3.397-3.396c0-1.876 1.521-3.397 3.397-3.397s3.397 1.521 3.397 3.397z"/><path d="m464.628 280.899c0 1.407-1.14 2.547-2.547 2.547s-2.548-1.14-2.548-2.547 1.141-2.548 2.548-2.548 2.547 1.141 2.547 2.548z"/><path d="m461.232 266.462c0 .938-.76 1.699-1.698 1.699-.939 0-1.699-.761-1.699-1.699s.76-1.698 1.699-1.698c.938 0 1.698.76 1.698 1.698z"/><path d="m469.724 254.573c0 .939-.76 1.699-1.698 1.699s-1.698-.76-1.698-1.699c0-.938.76-1.698 1.698-1.698s1.698.76 1.698 1.698z"/></g><path d="m182.267 457.585h17.335l-8.668-14.727zm7.887-5.472-.115-4.346h1.79l-.115 4.346zm.78 3.823c-.658 0-1.189-.531-1.189-1.189 0-.659.531-1.189 1.189-1.189.659 0 1.189.53 1.189 1.189 0 .658-.53 1.189-1.189 1.189zm15.013-10.036h4.117v11.685h1.585v-11.685h4.117v-1.406h-9.819zm13.569 5.779c0-1.713 1.093-2.685 2.583-2.685 1.419 0 2.275.895 2.275 2.455v6.136h1.509v-6.239c0-2.525-1.343-3.707-3.35-3.707-1.547 0-2.429.645-2.889 1.662h-.128v-4.807h-1.508v13.091h1.508zm13.243 6.11c1.994 0 3.452-.997 3.912-2.48l-1.458-.409c-.383 1.023-1.272 1.534-2.454 1.534-1.771 0-2.992-1.144-3.062-3.247h7.127v-.639c0-3.656-2.173-4.909-4.219-4.909-2.659 0-4.423 2.096-4.423 5.114 0 3.017 1.739 5.036 4.577 5.036zm-3.062-5.906c.102-1.528 1.183-2.889 2.908-2.889 1.637 0 2.685 1.227 2.685 2.889zm18.754-4.116h-2.096v-2.353h-1.509v2.353h-1.483v1.278h1.483v6.136c0 1.714 1.381 2.532 2.659 2.532.563 0 .921-.103 1.125-.179l-.306-1.355c-.128.025-.333.076-.665.076-.665 0-1.304-.204-1.304-1.483v-5.727h2.096zm3.989 3.912c0-1.713 1.093-2.685 2.582-2.685 1.419 0 2.276.895 2.276 2.455v6.136h1.508v-6.239c0-2.525-1.342-3.707-3.349-3.707-1.547 0-2.429.645-2.889 1.662h-.128v-4.807h-1.509v13.091h1.509zm15.314 1.892c0 1.841-1.406 2.684-2.531 2.684-1.253 0-2.148-.92-2.148-2.352v-6.136h-1.509v6.238c0 2.506 1.33 3.708 3.171 3.708 1.483 0 2.454-.793 2.914-1.79h.103v1.662h1.508v-9.818h-1.508zm4.271 4.014h1.509v-6.136c0-1.439 1.048-2.455 2.224-2.455 1.144 0 1.943.748 1.943 1.866v6.725h1.534v-6.392c0-1.266.793-2.199 2.174-2.199 1.074 0 1.994.569 1.994 2.02v6.571h1.509v-6.571c0-2.308-1.24-3.375-2.992-3.375-1.406 0-2.435.645-2.94 1.662h-.102c-.486-1.048-1.343-1.662-2.634-1.662-1.278 0-2.224.614-2.634 1.662h-.127v-1.534h-1.458zm15.849 0h1.458v-1.509h.179c.332.537.971 1.713 2.863 1.713 2.455 0 4.168-1.968 4.168-5.088 0-3.093-1.713-5.062-4.193-5.062-1.918 0-2.506 1.176-2.838 1.687h-.128v-4.832h-1.509zm1.483-4.909c0-2.199.972-3.682 2.813-3.682 1.917 0 2.863 1.611 2.863 3.682 0 2.096-.971 3.758-2.863 3.758-1.816 0-2.813-1.534-2.813-3.758zm11.001-.997c0-1.713 1.061-2.685 2.506-2.685 1.4 0 2.25.914 2.25 2.455v6.136h1.508v-6.239c0-2.505-1.336-3.707-3.324-3.707-1.483 0-2.403.665-2.863 1.662h-.128v-1.534h-1.458v9.818h1.509zm11.91 6.136c1.713 0 2.608-.92 2.915-1.56h.076v1.33h1.509v-6.469c0-3.119-2.378-3.477-3.631-3.477-1.483 0-3.17.511-3.937 2.301l1.432.511c.332-.716 1.118-1.483 2.556-1.483 1.387 0 2.071.736 2.071 1.995v.051c0 .729-.741.665-2.531.895-1.822.236-3.809.639-3.809 2.889 0 1.918 1.482 3.017 3.349 3.017zm.23-1.355c-1.202 0-2.071-.537-2.071-1.585 0-1.151 1.048-1.509 2.224-1.662.64-.077 2.353-.256 2.608-.563v1.381c0 1.227-.971 2.429-2.761 2.429zm7.023 1.125h1.509v-9.818h-1.509zm.767-11.455c.588 0 1.074-.46 1.074-1.022 0-.563-.486-1.023-1.074-1.023s-1.073.46-1.073 1.023c0 .562.485 1.022 1.073 1.022zm5.013-1.636h-1.508v13.091h1.508zm7.826 13.091h1.508v-9.818h-1.508zm.767-11.455c.588 0 1.074-.46 1.074-1.022 0-.563-.486-1.023-1.074-1.023s-1.074.46-1.074 1.023c0 .562.486 1.022 1.074 1.022zm10.459 3.836c-.473-1.394-1.534-2.327-3.477-2.327-2.071 0-3.606 1.176-3.606 2.838 0 1.355.806 2.263 2.608 2.685l1.637.383c.991.23 1.457.703 1.457 1.381 0 .844-.895 1.534-2.301 1.534-1.234 0-2.007-.531-2.276-1.585l-1.431.358c.351 1.668 1.725 2.556 3.733 2.556 2.282 0 3.835-1.246 3.835-2.94 0-1.368-.857-2.231-2.608-2.659l-1.458-.358c-1.163-.288-1.687-.677-1.687-1.432 0-.844.895-1.457 2.097-1.457 1.316 0 1.86.729 2.122 1.406zm7.717 7.619h1.457v-1.509h.179c.332.537.972 1.713 2.864 1.713 2.454 0 4.167-1.968 4.167-5.088 0-3.093-1.713-5.062-4.193-5.062-1.918 0-2.506 1.176-2.838 1.687h-.128v-4.832h-1.508zm1.483-4.909c0-2.199.971-3.682 2.812-3.682 1.918 0 2.864 1.611 2.864 3.682 0 2.096-.972 3.758-2.864 3.758-1.815 0-2.812-1.534-2.812-3.758zm9.492 4.909h1.508v-6.213c0-1.33 1.049-2.301 2.48-2.301.403 0 .819.076.921.102v-1.534c-.173-.013-.569-.026-.793-.026-1.176 0-2.199.665-2.557 1.637h-.102v-1.483h-1.457zm10.387.204c2.659 0 4.449-2.019 4.449-5.062 0-3.068-1.79-5.088-4.449-5.088s-4.449 2.02-4.449 5.088c0 3.043 1.79 5.062 4.449 5.062zm0-1.355c-2.02 0-2.94-1.738-2.94-3.707s.92-3.733 2.94-3.733 2.94 1.764 2.94 3.733-.92 3.707-2.94 3.707zm6.751 1.151h1.509v-3.676l1.055-.978 3.675 4.654h1.918l-4.456-5.625 4.149-4.193h-1.867l-4.295 4.372h-.179v-7.645h-1.509zm13.504.204c1.994 0 3.451-.997 3.912-2.48l-1.458-.409c-.383 1.023-1.272 1.534-2.454 1.534-1.771 0-2.992-1.144-3.062-3.247h7.127v-.639c0-3.656-2.173-4.909-4.219-4.909-2.659 0-4.423 2.096-4.423 5.114 0 3.017 1.739 5.036 4.577 5.036zm-3.062-5.906c.102-1.528 1.182-2.889 2.908-2.889 1.637 0 2.685 1.227 2.685 2.889zm10.93-.204c0-1.713 1.061-2.685 2.506-2.685 1.4 0 2.25.914 2.25 2.455v6.136h1.508v-6.239c0-2.505-1.335-3.707-3.323-3.707-1.483 0-2.404.665-2.864 1.662h-.128v-1.534h-1.457v9.818h1.508zm14.288 5.906h1.457v-1.509h.179c.333.537.972 1.713 2.864 1.713 2.455 0 4.168-1.968 4.168-5.088 0-3.093-1.713-5.062-4.193-5.062-1.918 0-2.506 1.176-2.839 1.687h-.127v-4.832h-1.509zm1.483-4.909c0-2.199.972-3.682 2.813-3.682 1.917 0 2.863 1.611 2.863 3.682 0 2.096-.971 3.758-2.863 3.758-1.816 0-2.813-1.534-2.813-3.758zm13.609 5.113c1.994 0 3.451-.997 3.912-2.48l-1.458-.409c-.383 1.023-1.272 1.534-2.454 1.534-1.771 0-2.992-1.144-3.062-3.247h7.127v-.639c0-3.656-2.173-4.909-4.219-4.909-2.659 0-4.423 2.096-4.423 5.114 0 3.017 1.739 5.036 4.577 5.036zm-3.062-5.906c.102-1.528 1.182-2.889 2.908-2.889 1.637 0 2.685 1.227 2.685 2.889zm13.41 5.906c2.174 0 3.606-1.329 3.861-3.068h-1.508c-.282 1.074-1.176 1.713-2.353 1.713-1.789 0-2.94-1.483-2.94-3.758 0-2.225 1.176-3.682 2.94-3.682 1.33 0 2.123.818 2.353 1.713h1.508c-.255-1.841-1.815-3.068-3.886-3.068-2.659 0-4.423 2.096-4.423 5.088 0 2.94 1.687 5.062 4.448 5.062zm8.956.026c1.713 0 2.608-.92 2.914-1.56h.077v1.33h1.509v-6.469c0-3.119-2.378-3.477-3.631-3.477-1.483 0-3.17.511-3.938 2.301l1.432.511c.333-.716 1.119-1.483 2.557-1.483 1.387 0 2.071.736 2.071 1.995v.051c0 .729-.741.665-2.531.895-1.822.236-3.81.639-3.81 2.889 0 1.918 1.483 3.017 3.35 3.017zm.23-1.355c-1.202 0-2.071-.537-2.071-1.585 0-1.151 1.048-1.509 2.224-1.662.639-.077 2.352-.256 2.608-.563v1.381c0 1.227-.971 2.429-2.761 2.429zm13.211-2.889c0 1.841-1.407 2.684-2.532 2.684-1.253 0-2.147-.92-2.147-2.352v-6.136h-1.509v6.238c0 2.506 1.33 3.708 3.17 3.708 1.483 0 2.455-.793 2.915-1.79h.103v1.662h1.508v-9.818h-1.508zm11.226-3.605c-.473-1.394-1.535-2.327-3.478-2.327-2.071 0-3.605 1.176-3.605 2.838 0 1.355.806 2.263 2.608 2.685l1.637.383c.99.23 1.457.703 1.457 1.381 0 .844-.895 1.534-2.301 1.534-1.234 0-2.007-.531-2.276-1.585l-1.432.358c.352 1.668 1.726 2.556 3.733 2.556 2.282 0 3.836-1.246 3.836-2.94 0-1.368-.857-2.231-2.608-2.659l-1.458-.358c-1.163-.288-1.687-.677-1.687-1.432 0-.844.895-1.457 2.096-1.457 1.317 0 1.86.729 2.122 1.406zm6.566 7.823c1.994 0 3.452-.997 3.912-2.48l-1.458-.409c-.383 1.023-1.272 1.534-2.454 1.534-1.771 0-2.992-1.144-3.062-3.247h7.127v-.639c0-3.656-2.173-4.909-4.219-4.909-2.659 0-4.423 2.096-4.423 5.114 0 3.017 1.739 5.036 4.577 5.036zm-3.062-5.906c.102-1.528 1.183-2.889 2.908-2.889 1.637 0 2.685 1.227 2.685 2.889zm18.754-4.116h-2.096v-2.353h-1.509v2.353h-1.483v1.278h1.483v6.136c0 1.714 1.381 2.532 2.659 2.532.563 0 .921-.103 1.125-.179l-.307-1.355c-.127.025-.332.076-.664.076-.665 0-1.304-.204-1.304-1.483v-5.727h2.096zm3.989 3.912c0-1.713 1.093-2.685 2.582-2.685 1.419 0 2.276.895 2.276 2.455v6.136h1.508v-6.239c0-2.525-1.342-3.707-3.349-3.707-1.547 0-2.429.645-2.889 1.662h-.128v-4.807h-1.509v13.091h1.509zm13.243 6.11c1.994 0 3.451-.997 3.912-2.48l-1.458-.409c-.383 1.023-1.272 1.534-2.454 1.534-1.771 0-2.992-1.144-3.062-3.247h7.127v-.639c0-3.656-2.173-4.909-4.219-4.909-2.659 0-4.423 2.096-4.423 5.114 0 3.017 1.739 5.036 4.577 5.036zm-3.062-5.906c.102-1.528 1.182-2.889 2.908-2.889 1.637 0 2.685 1.227 2.685 2.889zm23.28-7.389v8.54c0 1.917-1.317 3.298-3.503 3.298s-3.503-1.381-3.503-3.298v-8.54h-1.585v8.668c0 2.684 2.007 4.653 5.088 4.653s5.088-1.969 5.088-4.653v-8.668zm4.751 13.091h1.585v-5.114h2.863c.115 0 .224 0 .333-.006l2.761 5.12h1.841l-2.959-5.408c1.668-.569 2.448-1.93 2.448-3.669 0-2.314-1.381-4.014-4.449-4.014h-4.423zm1.585-6.546v-5.139h2.787c2.122 0 2.94 1.036 2.94 2.608 0 1.573-.818 2.531-2.915 2.531zm9.928 6.546h7.671v-1.406h-6.086v-11.685h-1.585zm14.983 0h1.509v-9.818h-1.509zm.767-11.455c.588 0 1.074-.46 1.074-1.022 0-.563-.486-1.023-1.074-1.023s-1.074.46-1.074 1.023c0 .562.486 1.022 1.074 1.022zm10.459 3.836c-.473-1.394-1.534-2.327-3.477-2.327-2.071 0-3.605 1.176-3.605 2.838 0 1.355.805 2.263 2.608 2.685l1.636.383c.991.23 1.458.703 1.458 1.381 0 .844-.895 1.534-2.302 1.534-1.233 0-2.007-.531-2.275-1.585l-1.432.358c.352 1.668 1.726 2.556 3.733 2.556 2.282 0 3.835-1.246 3.835-2.94 0-1.368-.856-2.231-2.608-2.659l-1.457-.358c-1.164-.288-1.688-.677-1.688-1.432 0-.844.895-1.457 2.097-1.457 1.317 0 1.86.729 2.122 1.406zm7.512 7.619h1.509v-6.213c0-1.33 1.048-2.301 2.48-2.301.403 0 .818.076.921.102v-1.534c-.173-.013-.569-.026-.793-.026-1.176 0-2.199.665-2.557 1.637h-.102v-1.483h-1.458zm10.515.204c1.995 0 3.452-.997 3.912-2.48l-1.457-.409c-.384 1.023-1.272 1.534-2.455 1.534-1.77 0-2.991-1.144-3.061-3.247h7.127v-.639c0-3.656-2.174-4.909-4.219-4.909-2.659 0-4.423 2.096-4.423 5.114 0 3.017 1.738 5.036 4.576 5.036zm-3.061-5.906c.102-1.528 1.182-2.889 2.908-2.889 1.636 0 2.685 1.227 2.685 2.889zm10.93-7.389h-1.509v13.091h1.509zm5.652 13.321c1.713 0 2.608-.92 2.915-1.56h.077v1.33h1.508v-6.469c0-3.119-2.378-3.477-3.631-3.477-1.482 0-3.17.511-3.937 2.301l1.432.511c.332-.716 1.118-1.483 2.557-1.483 1.387 0 2.071.736 2.071 1.995v.051c0 .729-.742.665-2.532.895-1.821.236-3.809.639-3.809 2.889 0 1.918 1.483 3.017 3.349 3.017zm.23-1.355c-1.201 0-2.071-.537-2.071-1.585 0-1.151 1.049-1.509 2.225-1.662.639-.077 2.352-.256 2.608-.563v1.381c0 1.227-.972 2.429-2.762 2.429zm11.293-8.693h-2.096v-2.353h-1.509v2.353h-1.483v1.278h1.483v6.136c0 1.714 1.381 2.532 2.659 2.532.563 0 .921-.103 1.125-.179l-.306-1.355c-.128.025-.333.076-.665.076-.665 0-1.304-.204-1.304-1.483v-5.727h2.096zm2.27 9.818h1.508v-9.818h-1.508zm.767-11.455c.588 0 1.073-.46 1.073-1.022 0-.563-.485-1.023-1.073-1.023s-1.074.46-1.074 1.023c0 .562.486 1.022 1.074 1.022zm11.532 1.637h-1.636l-2.71 7.824h-.102l-2.711-7.824h-1.636l3.631 9.818h1.534zm5.757 10.022c1.994 0 3.451-.997 3.911-2.48l-1.457-.409c-.383 1.023-1.272 1.534-2.454 1.534-1.771 0-2.992-1.144-3.062-3.247h7.127v-.639c0-3.656-2.173-4.909-4.219-4.909-2.659 0-4.423 2.096-4.423 5.114 0 3.017 1.738 5.036 4.577 5.036zm-3.062-5.906c.102-1.528 1.182-2.889 2.908-2.889 1.636 0 2.685 1.227 2.685 2.889zm18.473 5.906c2.659 0 4.449-2.019 4.449-5.062 0-3.068-1.79-5.088-4.449-5.088s-4.449 2.02-4.449 5.088c0 3.043 1.79 5.062 4.449 5.062zm0-1.355c-2.02 0-2.941-1.738-2.941-3.707s.921-3.733 2.941-3.733 2.94 1.764 2.94 3.733-.92 3.707-2.94 3.707zm6.751 1.151h1.509v-6.213c0-1.33 1.048-2.301 2.48-2.301.403 0 .818.076.92.102v-1.534c-.172-.013-.568-.026-.792-.026-1.176 0-2.199.665-2.557 1.637h-.102v-1.483h-1.458zm13.269-5.906c0-1.713 1.061-2.685 2.505-2.685 1.4 0 2.25.914 2.25 2.455v6.136h1.509v-6.239c0-2.505-1.336-3.707-3.324-3.707-1.483 0-2.403.665-2.864 1.662h-.128v-1.534h-1.457v9.818h1.509zm13.009 6.11c2.659 0 4.449-2.019 4.449-5.062 0-3.068-1.79-5.088-4.449-5.088s-4.449 2.02-4.449 5.088c0 3.043 1.79 5.062 4.449 5.062zm0-1.355c-2.02 0-2.94-1.738-2.94-3.707s.92-3.733 2.94-3.733 2.94 1.764 2.94 3.733-.92 3.707-2.94 3.707zm11.021-8.667h-2.096v-2.353h-1.509v2.353h-1.483v1.278h1.483v6.136c0 1.714 1.381 2.532 2.659 2.532.563 0 .921-.103 1.125-.179l-.306-1.355c-.128.025-.333.076-.665.076-.665 0-1.304-.204-1.304-1.483v-5.727h2.096zm9.557 9.818h1.483l2.147-7.543h.154l2.147 7.543h1.483l2.992-9.818h-1.585l-2.123 7.491h-.102l-2.071-7.491h-1.611l-2.096 7.517h-.102l-2.123-7.517h-1.585zm16.055.204c2.659 0 4.449-2.019 4.449-5.062 0-3.068-1.79-5.088-4.449-5.088s-4.449 2.02-4.449 5.088c0 3.043 1.79 5.062 4.449 5.062zm0-1.355c-2.02 0-2.941-1.738-2.941-3.707s.921-3.733 2.941-3.733 2.94 1.764 2.94 3.733-.92 3.707-2.94 3.707zm6.751 1.151h1.509v-6.213c0-1.33 1.048-2.301 2.48-2.301.403 0 .818.076.921.102v-1.534c-.173-.013-.569-.026-.793-.026-1.176 0-2.199.665-2.557 1.637h-.102v-1.483h-1.458zm6.698 0h1.508v-3.676l1.055-.978 3.675 4.654h1.918l-4.455-5.625 4.148-4.193h-1.866l-4.296 4.372h-.179v-7.645h-1.508zm9.791 0h1.508v-9.818h-1.508zm.767-11.455c.588 0 1.074-.46 1.074-1.022 0-.563-.486-1.023-1.074-1.023s-1.074.46-1.074 1.023c0 .562.486 1.022 1.074 1.022zm5.013 5.549c0-1.713 1.061-2.685 2.505-2.685 1.4 0 2.25.914 2.25 2.455v6.136h1.509v-6.239c0-2.505-1.336-3.707-3.324-3.707-1.483 0-2.403.665-2.864 1.662h-.127v-1.534h-1.458v9.818h1.509zm12.984 9.792c2.352 0 4.244-1.074 4.244-3.605v-10.099h-1.458v1.559h-.153c-.332-.511-.946-1.687-2.864-1.687-2.48 0-4.193 1.969-4.193 4.986 0 3.068 1.79 4.806 4.168 4.806 1.917 0 2.531-1.125 2.864-1.661h.127v1.994c0 1.636-1.15 2.378-2.735 2.378-1.784 0-2.41-.94-2.813-1.483l-1.202.844c.614 1.029 1.822 1.968 4.015 1.968zm-.052-5.395c-1.892 0-2.863-1.431-2.863-3.477 0-1.994.946-3.605 2.863-3.605 1.841 0 2.813 1.483 2.813 3.605 0 2.173-.997 3.477-2.813 3.477zm8.157 1.611c.632 0 1.15-.518 1.15-1.15 0-.633-.518-1.151-1.15-1.151-.633 0-1.151.518-1.151 1.151 0 .632.518 1.15 1.151 1.15zm-437.163 13.807h-1.586v13.091h1.586zm7.243 3.273h-2.096v-2.353h-1.509v2.353h-1.483v1.278h1.483v6.136c0 1.714 1.381 2.532 2.659 2.532.563 0 .921-.103 1.125-.179l-.307-1.355c-.127.025-.332.076-.664.076-.665 0-1.304-.204-1.304-1.483v-5.727h2.096zm7.332 9.818h1.509v-6.136c0-1.439 1.048-2.455 2.224-2.455 1.144 0 1.943.748 1.943 1.866v6.725h1.534v-6.392c0-1.266.793-2.199 2.174-2.199 1.073 0 1.994.569 1.994 2.02v6.571h1.508v-6.571c0-2.308-1.24-3.375-2.991-3.375-1.406 0-2.436.645-2.94 1.662h-.103c-.486-1.048-1.342-1.662-2.633-1.662-1.279 0-2.225.614-2.634 1.662h-.128v-1.534h-1.457zm15.645 0h1.508v-9.818h-1.508zm.767-11.455c.588 0 1.073-.46 1.073-1.022 0-.563-.485-1.023-1.073-1.023-.589 0-1.074.46-1.074 1.023 0 .562.485 1.022 1.074 1.022zm7.467 15.341c2.352 0 4.244-1.074 4.244-3.605v-10.099h-1.457v1.559h-.153c-.333-.511-.946-1.687-2.864-1.687-2.48 0-4.193 1.969-4.193 4.986 0 3.068 1.79 4.806 4.167 4.806 1.918 0 2.532-1.125 2.864-1.661h.128v1.994c0 1.636-1.151 2.378-2.736 2.378-1.783 0-2.41-.94-2.812-1.483l-1.202.844c.613 1.029 1.822 1.968 4.014 1.968zm-.051-5.395c-1.892 0-2.864-1.431-2.864-3.477 0-1.994.946-3.605 2.864-3.605 1.841 0 2.812 1.483 2.812 3.605 0 2.173-.997 3.477-2.812 3.477zm8.565-4.397c0-1.713 1.093-2.685 2.583-2.685 1.419 0 2.275.895 2.275 2.455v6.136h1.509v-6.239c0-2.525-1.343-3.707-3.35-3.707-1.547 0-2.429.645-2.889 1.662h-.128v-4.807h-1.508v13.091h1.508zm13.396-3.912h-2.096v-2.353h-1.509v2.353h-1.483v1.278h1.483v6.136c0 1.714 1.381 2.532 2.659 2.532.563 0 .921-.103 1.125-.179l-.306-1.355c-.128.025-.333.076-.665.076-.665 0-1.304-.204-1.304-1.483v-5.727h2.096zm9.557 9.818h1.482l2.148-7.543h.154l2.147 7.543h1.483l2.992-9.818h-1.585l-2.123 7.491h-.102l-2.071-7.491h-1.611l-2.096 7.517h-.103l-2.122-7.517h-1.585zm16.055.204c2.659 0 4.449-2.019 4.449-5.062 0-3.068-1.79-5.088-4.449-5.088s-4.449 2.02-4.449 5.088c0 3.043 1.79 5.062 4.449 5.062zm0-1.355c-2.02 0-2.941-1.738-2.941-3.707s.921-3.733 2.941-3.733 2.94 1.764 2.94 3.733-.92 3.707-2.94 3.707zm6.751 1.151h1.509v-6.213c0-1.33 1.048-2.301 2.48-2.301.403 0 .818.076.92.102v-1.534c-.172-.013-.568-.026-.792-.026-1.176 0-2.199.665-2.557 1.637h-.102v-1.483h-1.458zm6.698 0h1.508v-3.676l1.055-.978 3.675 4.654h1.918l-4.455-5.625 4.148-4.193h-1.866l-4.296 4.372h-.179v-7.645h-1.508zm14.853 0h1.509v-9.818h-1.509zm.767-11.455c.588 0 1.074-.46 1.074-1.022 0-.563-.486-1.023-1.074-1.023s-1.074.46-1.074 1.023c0 .562.486 1.022 1.074 1.022zm5.013 5.549c0-1.713 1.061-2.685 2.506-2.685 1.4 0 2.25.914 2.25 2.455v6.136h1.508v-6.239c0-2.505-1.336-3.707-3.324-3.707-1.483 0-2.403.665-2.863 1.662h-.128v-1.534h-1.457v9.818h1.508zm15.055 9.588c1.361 0 2.32-.723 2.889-2.25l4.181-11.225-1.65-.025-2.71 7.824h-.102l-2.71-7.824h-1.637l3.631 9.869-.281.767c-.55 1.496-1.228 1.636-2.327 1.355l-.383 1.33c.153.076.588.179 1.099.179zm12.703-3.478c2.659 0 4.448-2.019 4.448-5.062 0-3.068-1.789-5.088-4.448-5.088-2.66 0-4.449 2.02-4.449 5.088 0 3.043 1.789 5.062 4.449 5.062zm0-1.355c-2.02 0-2.941-1.738-2.941-3.707s.921-3.733 2.941-3.733c2.019 0 2.94 1.764 2.94 3.733s-.921 3.707-2.94 3.707zm12.939-2.863c0 1.841-1.407 2.684-2.532 2.684-1.252 0-2.147-.92-2.147-2.352v-6.136h-1.509v6.238c0 2.506 1.33 3.708 3.171 3.708 1.483 0 2.454-.793 2.914-1.79h.103v1.662h1.508v-9.818h-1.508zm4.271 4.014h1.509v-6.213c0-1.33 1.048-2.301 2.48-2.301.402 0 .818.076.92.102v-1.534c-.172-.013-.569-.026-.792-.026-1.177 0-2.199.665-2.557 1.637h-.102v-1.483h-1.458zm15.876.204c1.995 0 3.452-.997 3.912-2.48l-1.457-.409c-.384 1.023-1.272 1.534-2.455 1.534-1.77 0-2.991-1.144-3.061-3.247h7.127v-.639c0-3.656-2.174-4.909-4.219-4.909-2.659 0-4.423 2.096-4.423 5.114 0 3.017 1.738 5.036 4.576 5.036zm-3.061-5.906c.102-1.528 1.182-2.889 2.908-2.889 1.636 0 2.685 1.227 2.685 2.889zm10.93-.204c0-1.713 1.061-2.685 2.506-2.685 1.4 0 2.25.914 2.25 2.455v6.136h1.508v-6.239c0-2.505-1.336-3.707-3.324-3.707-1.483 0-2.403.665-2.863 1.662h-.128v-1.534h-1.458v9.818h1.509zm16.698-3.912h-1.637l-2.71 7.824h-.102l-2.71-7.824h-1.637l3.631 9.818h1.534zm1.991 9.818h1.508v-9.818h-1.508zm.767-11.455c.588 0 1.074-.46 1.074-1.022 0-.563-.486-1.023-1.074-1.023s-1.074.46-1.074 1.023c0 .562.486 1.022 1.074 1.022zm3.504 11.455h1.509v-6.213c0-1.33 1.048-2.301 2.48-2.301.403 0 .818.076.92.102v-1.534c-.172-.013-.569-.026-.792-.026-1.176 0-2.199.665-2.557 1.637h-.102v-1.483h-1.458zm10.387.204c2.659 0 4.449-2.019 4.449-5.062 0-3.068-1.79-5.088-4.449-5.088s-4.449 2.02-4.449 5.088c0 3.043 1.79 5.062 4.449 5.062zm0-1.355c-2.02 0-2.94-1.738-2.94-3.707s.92-3.733 2.94-3.733 2.941 1.764 2.941 3.733-.921 3.707-2.941 3.707zm8.26-4.755c0-1.713 1.062-2.685 2.506-2.685 1.4 0 2.25.914 2.25 2.455v6.136h1.509v-6.239c0-2.505-1.336-3.707-3.324-3.707-1.483 0-2.404.665-2.864 1.662h-.128v-1.534h-1.457v9.818h1.508zm9.021 5.906h1.509v-6.136c0-1.439 1.048-2.455 2.224-2.455 1.144 0 1.943.748 1.943 1.866v6.725h1.534v-6.392c0-1.266.793-2.199 2.174-2.199 1.074 0 1.994.569 1.994 2.02v6.571h1.509v-6.571c0-2.308-1.24-3.375-2.992-3.375-1.406 0-2.435.645-2.94 1.662h-.103c-.485-1.048-1.342-1.662-2.633-1.662-1.278 0-2.224.614-2.634 1.662h-.127v-1.534h-1.458zm19.761.204c1.995 0 3.452-.997 3.912-2.48l-1.457-.409c-.384 1.023-1.272 1.534-2.455 1.534-1.77 0-2.991-1.144-3.062-3.247h7.128v-.639c0-3.656-2.174-4.909-4.219-4.909-2.659 0-4.423 2.096-4.423 5.114 0 3.017 1.738 5.036 4.576 5.036zm-3.062-5.906c.103-1.528 1.183-2.889 2.909-2.889 1.636 0 2.684 1.227 2.684 2.889zm10.931-.204c0-1.713 1.061-2.685 2.505-2.685 1.4 0 2.25.914 2.25 2.455v6.136h1.509v-6.239c0-2.505-1.336-3.707-3.324-3.707-1.483 0-2.403.665-2.863 1.662h-.128v-1.534h-1.458v9.818h1.509zm13.29-3.912h-2.096v-2.353h-1.509v2.353h-1.483v1.278h1.483v6.136c0 1.714 1.381 2.532 2.659 2.532.563 0 .921-.103 1.125-.179l-.306-1.355c-.128.025-.333.076-.665.076-.665 0-1.304-.204-1.304-1.483v-5.727h2.096zm3.369 9.92c.633 0 1.151-.518 1.151-1.15 0-.633-.518-1.151-1.151-1.151s-1.15.518-1.15 1.151c0 .632.517 1.15 1.15 1.15z" fill="#000"/></svg>